<svg width="333" height="314" viewBox="0 0 333 314" fill="none" xmlns="http://www.w3.org/2000/svg">
<path d="M58.3285 210.37C59.6566 210.37 60.7332 209.294 60.7332 207.967C60.7332 206.64 59.6566 205.565 58.3285 205.565C57.0004 205.565 55.9238 206.64 55.9238 207.967C55.9238 209.294 57.0004 210.37 58.3285 210.37Z" fill="#CFCFCF"/>
<path d="M214.266 109.957C193.728 109.957 172.821 109.124 153.265 103.681C134.076 98.3616 116.458 88.0408 100.754 76.1021C90.4729 68.3309 81.124 62.1287 67.7755 63.0603C54.7167 63.7662 42.2288 68.6382 32.1467 76.9601C15.1666 91.8161 17.7186 119.346 24.5155 138.615C34.7232 167.714 65.7879 187.988 92.1905 201.103C122.691 216.327 156.209 225.177 189.802 230.251C219.247 234.737 257.084 237.973 282.603 218.778C306.037 201.103 312.466 160.801 306.724 133.589C305.331 125.551 301.046 118.297 294.676 113.193C278.211 101.156 253.649 109.197 235.147 109.589C228.277 109.736 221.283 109.908 214.266 109.957Z" fill="#F2F2F2"/>
<path d="M171.496 233.291C186.796 233.291 199.199 220.9 199.199 205.614C199.199 190.328 186.796 177.937 171.496 177.937C156.196 177.937 143.793 190.328 143.793 205.614C143.793 220.9 156.196 233.291 171.496 233.291Z" fill="#226619"/>
<path d="M142.87 32.8241C144.401 32.4829 145.985 32.4464 147.531 32.7168C149.077 32.9872 150.554 33.559 151.879 34.3998C153.203 35.2406 154.349 36.3338 155.251 37.6169C156.152 38.9001 156.792 40.3482 157.134 41.8784L161.561 61.7141L138.186 66.9212L133.759 47.0856C133.416 45.5513 133.381 43.9646 133.654 42.4165C133.926 40.8683 134.503 39.3893 135.349 38.0642C136.196 36.7392 137.296 35.5942 138.586 34.6949C139.877 33.7957 141.332 33.1599 142.87 32.8241Z" fill="white" stroke="#57B74A" stroke-width="2" stroke-linecap="round" stroke-linejoin="round"/>
<path d="M252.078 188.429L110.029 220.053C109.147 220.251 108.228 220.216 107.364 219.95C106.5 219.685 105.719 219.2 105.1 218.541C104.481 217.883 104.044 217.075 103.833 216.196C103.621 215.318 103.643 214.4 103.895 213.532L104.484 211.497C109.392 194.116 113.661 174.97 109.735 157.32L101.343 119.665C94.2763 88.0163 113.268 55.7794 144.775 48.0082C152.458 46.1027 160.444 45.7518 168.265 46.9761C176.085 48.2004 183.582 50.9751 190.313 55.1371C197.044 59.299 202.874 64.764 207.459 71.2104C212.045 77.6569 215.293 84.9547 217.014 92.6742L225.676 131.604C229.626 149.254 241.552 164.846 253.477 178.427L254.876 180.02C255.442 180.703 255.825 181.518 255.989 182.389C256.153 183.26 256.092 184.159 255.812 185C255.532 185.841 255.042 186.597 254.389 187.197C253.736 187.797 252.941 188.221 252.078 188.429Z" fill="white" stroke="#57B74A" stroke-width="2" stroke-linecap="round" stroke-linejoin="round"/>
<path d="M147.007 164.159C146.969 158.433 148.894 152.867 152.464 148.387C156.033 143.907 161.03 140.783 166.624 139.537C172.218 138.29 178.071 138.995 183.208 141.535C188.344 144.075 192.455 148.296 194.856 153.495" stroke="#57B74A" stroke-width="2" stroke-linecap="round" stroke-linejoin="round"/>
<path d="M191 125C193.209 125 195 123.209 195 121C195 118.791 193.209 117 191 117C188.791 117 187 118.791 187 121C187 123.209 188.791 125 191 125Z" fill="#57B74A"/>
<path d="M137 137C139.209 137 141 135.209 141 133C141 130.791 139.209 129 137 129C134.791 129 133 130.791 133 133C133 135.209 134.791 137 137 137Z" fill="#57B74A"/>
<path d="M201.776 29.1317C203.104 29.1317 204.181 28.0561 204.181 26.7293C204.181 25.4025 203.104 24.3268 201.776 24.3268C200.448 24.3268 199.371 25.4025 199.371 26.7293C199.371 28.0561 200.448 29.1317 201.776 29.1317Z" fill="#1A4FA0"/>
<path d="M58.3285 210.37C59.6566 210.37 60.7332 209.294 60.7332 207.967C60.7332 206.64 59.6566 205.565 58.3285 205.565C57.0004 205.565 55.9238 206.64 55.9238 207.967C55.9238 209.294 57.0004 210.37 58.3285 210.37Z" fill="#1A4FA0"/>
<path d="M268.224 84.7559V95.2972" stroke="#1A4FA0" stroke-linecap="round" stroke-linejoin="round"/>
<path d="M262.948 90.0266H273.499" stroke="#1A4FA0" stroke-linecap="round" stroke-linejoin="round"/>
<path d="M273.033 243.465V254.006" stroke="#1A4FA0" stroke-linecap="round" stroke-linejoin="round"/>
<path d="M267.758 248.735H278.309" stroke="#1A4FA0" stroke-linecap="round" stroke-linejoin="round"/>
<path d="M88.5586 44.7968V55.3381" stroke="#1A4FA0" stroke-linecap="round" stroke-linejoin="round"/>
<path d="M83.2832 50.0674H93.8344" stroke="#1A4FA0" stroke-linecap="round" stroke-linejoin="round"/>
<path d="M164.994 277.957C214.743 277.957 255.072 275.444 255.072 272.343C255.072 269.243 214.743 266.729 164.994 266.729C115.245 266.729 74.916 269.243 74.916 272.343C74.916 275.444 115.245 277.957 164.994 277.957Z" fill="#F2F2F2"/>
<path d="M251.048 78.7743C251.041 86.2298 248.074 93.3781 242.797 98.6499C237.52 103.922 230.365 106.886 222.903 106.893C221.985 106.893 221.068 106.844 220.155 106.746L211.812 120.351L209.211 103.314C204.876 100.902 201.257 97.3892 198.719 93.1302C196.181 88.8712 194.816 84.0177 194.76 79.0614C194.705 74.1052 195.961 69.2224 198.403 64.9077C200.845 60.593 204.385 56.9999 208.664 54.4923C212.944 51.9847 217.81 50.6518 222.772 50.6287C227.733 50.6055 232.612 51.8929 236.915 54.3605C241.217 56.828 244.791 60.388 247.273 64.6797C249.755 68.9714 251.057 73.8423 251.048 78.7988V78.7743Z" fill="white" stroke="#57B74A" stroke-width="2" stroke-linecap="round" stroke-linejoin="round"/>
<path d="M210.879 81.618C212.451 81.618 213.725 80.3448 213.725 78.7743C213.725 77.2037 212.451 75.9305 210.879 75.9305C209.307 75.9305 208.033 77.2037 208.033 78.7743C208.033 80.3448 209.307 81.618 210.879 81.618Z" fill="#D2D2D2" stroke="#57B74A" stroke-miterlimit="10"/>
<path d="M222.903 81.618C224.475 81.618 225.749 80.3448 225.749 78.7743C225.749 77.2037 224.475 75.9305 222.903 75.9305C221.331 75.9305 220.057 77.2037 220.057 78.7743C220.057 80.3448 221.331 81.618 222.903 81.618Z" fill="#D2D2D2" stroke="#57B74A" stroke-miterlimit="10"/>
<path d="M234.926 81.618C236.498 81.618 237.773 80.3448 237.773 78.7743C237.773 77.2037 236.498 75.9305 234.926 75.9305C233.354 75.9305 232.08 77.2037 232.08 78.7743C232.08 80.3448 233.354 81.618 234.926 81.618Z" fill="#D2D2D2" stroke="#57B74A" stroke-miterlimit="10"/>
</svg>
