<?xml version="1.0" encoding="UTF-8"?>
<svg id="Layer_2" data-name="Layer 2" xmlns="http://www.w3.org/2000/svg" viewBox="0 130 105 155">
  <defs>
    <style>
      .cls-1 {
        fill: #c9f001;
      }

      .cls-1, .cls-2, .cls-3 {
        stroke-width: 0px;
      }

      .cls-4 {
        stroke-width: .75px;
      }

      .cls-4, .cls-5 {
        fill: none;
        stroke: #000;
        stroke-miterlimit: 10;
      }

      .cls-6 {
        opacity: .99;
      }

      .cls-2 {
        fill: #1a4fa0;
      }

      .cls-3 {
        fill: #57b74a;
      }

      .cls-5 {
        stroke-width: .5px;
      }
    </style>
  </defs>
  <g class="cls-6">
    <g>
      <path class="cls-3" d="M11.57,196.71c-.12.03-.24.05-.35.07-1.49.34-8.51,1.45-9.2-2-.91-5.88-1.39-26.29-1.64-33.4H.38c1.37-.6,48.97-21.51,50.26-22.01.86-.25,2.01-.64,2.91-.9.54-.17.47-.14.7-.04,4.95,2.35,8.06,4.04,14.12,6.58,11.59,4.94,35.9,15.01,37.58,15.78.52.27.64.64.72,1.48.08.92-.03,3.31-.06,4.7.17,8.31-1.38,22.99-2.25,28.51-.08.63-.24,1.49-.35,2.05,0,0,0,0,0-.04,0-.09.05-.2-.02-.25-2.55-.12-5.58-.24-8.74-.45v-.08c-2.18-.34-7.23-3.41-10.28-5.54-2.45-1.72-4.5-4.48-5.86-6.9-3.12-6-7.23-16-12.44-25.95-1.23-2.52-3.05-4.73-5.8-5.73-3.24-1.25-7.5-.08-10.11,2.61-.84.86-1.41,1.78-1.84,2.83-.49,1.14-1.08,2.68-1.76,4.49-.16.45-.34.92-.51,1.39-1.97-.08-4.06.22-5.65.73-2.26.94-5.42,4.6-7.14,6.51-.81,1.01-8.54,15.23-13.15,20.44-2.33,2.52-6.47,4.6-9.13,5.12Z"/>
      <path class="cls-3" d="M102.77,202.1c.26.34.2.31.15.51-.5,1.51-1.39,4.92-1.92,6.92-.54,2-1.25,5.01-1.88,7.27-3.13,10.7-11.38,20.87-18.12,30.51-.57.78-1.23,1.57-1.96,2.36-6.89,7.27-17.35,13.7-25.61,18.32-.22.06-.44-.14-.67-.23-.96-.51-3.21-1.63-4.38-2.27-1.97-1.28-7.17-4.91-9.74-6.67-1.66-1.22-13.64-12.83-17.51-17.21-8.55-8.8-15.13-28.87-17.71-39.19h0c.66-.18,2.67-.4,3.72-.46.99-.02,1.92-.05,2.81-.07h0c2.3.33,5.34,1.22,7.47,2.5,4.14,2.87,7.64,9.16,9.86,13.06,1.1,2.33,7.26,16.98,10.87,24.14.43.79.81,1.44,1.5,2.19,1.84,2.07,4.9,3.11,7.2,2.89.48-.03,1.17-.13,1.46-.11.62-.01,1.17-.17,1.76-.46,3.88-2.14,6.18-6.94,7.87-11.35,2.9-.14,5.9-1.19,8.02-2.44,1.5-.96,2.39-2.12,3.76-3.96,4.1-5.73,7.47-13.13,10.92-18.33,2.51-3.51,6.32-5.82,10.22-7.33,1.73-.67,3.38-1.18,5.27-1.62h.03s.04-.02.06-.02c1.17-.25,2.27-.44,3.46-.31,1.27.15,2.35.48,3.09,1.36Z"/>
      <path class="cls-2" d="M95.25,196.71v.08c-6.68-.45-13.99-1.27-18.93-3.17-3.08-1.22-6.36-3.75-8.72-5.77-2.68-2.76-6.19-8.81-7.72-11.71-.39-.84-.79-1.49-1.36-2.33-2.33-3.21-5.28-7.14-7.86-9.01-1.08-.56-2.52-.83-4.02-.89.17-.47.35-.94.51-1.39.68-1.81,1.27-3.35,1.76-4.49.43-1.05,1-1.97,1.84-2.83,2.61-2.69,6.87-3.86,10.11-2.61,2.75,1,4.57,3.21,5.8,5.73,5.21,9.95,9.32,19.95,12.44,25.95,1.36,2.42,3.41,5.18,5.86,6.9,3.05,2.13,8.1,5.2,10.29,5.54Z"/>
      <path class="cls-1" d="M96.14,201.07c-1.89.44-3.54.95-5.27,1.62-3.9,1.51-7.71,3.82-10.22,7.33-3.45,5.2-6.82,12.6-10.92,18.33-1.37,1.84-2.26,3-3.76,3.96-2.12,1.25-5.12,2.3-8.02,2.44.45-1.15.85-2.27,1.23-3.31,1.32-3.62,2.5-6.4,4.14-9.67,2.67-5.63,6.84-11.2,7.02-11.26,2.52-2.14,6.95-5.49,11.97-7.29,4.02-1.32,10.03-1.9,13.83-2.15Z"/>
      <path class="cls-2" d="M50.09,231.16c1.68,2.85,4.71,3.75,7.85,3.59-1.69,4.41-3.99,9.21-7.87,11.35-.59.29-1.14.45-1.76.46-.29-.02-.98.08-1.46.11-2.3.22-5.36-.82-7.2-2.89-.69-.75-1.07-1.4-1.5-2.19-3.61-7.16-9.77-21.81-10.87-24.14-2.22-3.9-5.72-10.19-9.86-13.06-2.13-1.28-5.17-2.17-7.47-2.49h0c5.02-.1,8.83.07,16.87,2.06,11.15,2.04,18.92,20.61,23.27,27.2Z"/>
      <path class="cls-1" d="M40.99,164.64c1.59-.51,3.68-.81,5.65-.73-.53,1.44-1.11,2.99-1.73,4.59-3.53,8.62-6.2,16.54-12.75,20.8-8.39,6.45-11.46,6.53-20.59,7.41,2.66-.52,6.8-2.6,9.13-5.12,4.61-5.21,12.34-19.43,13.15-20.44,1.72-1.91,4.88-5.57,7.14-6.51Z"/>
    </g>
    <g>
      <path class="cls-4" d="M95.24,196.79c3.16.21,6.19.33,8.74.45.07.05.02.16.02.25,0,.03,0,.04,0,.04.11-.56.27-1.42.35-2.05.87-5.52,2.42-20.2,2.25-28.51.03-1.39.14-3.78.06-4.7-.08-.84-.2-1.21-.72-1.48-1.68-.77-25.99-10.84-37.58-15.78-6.06-2.54-9.17-4.23-14.12-6.58-.23-.1-.16-.13-.7.04-.9.26-2.05.65-2.91.9-1.29.5-48.89,21.41-50.26,22H.38c.25,7.12.73,27.53,1.64,33.41.69,3.45,7.71,2.34,9.2,2,.11-.02.23-.04.35-.07,2.66-.52,6.8-2.6,9.13-5.12,4.61-5.21,12.34-19.43,13.15-20.44,1.72-1.91,4.88-5.57,7.14-6.51,1.59-.51,3.68-.81,5.65-.73,1.5.06,2.94.33,4.02.89,2.58,1.87,5.53,5.8,7.86,9.01.57.84.97,1.49,1.36,2.33,1.53,2.9,5.04,8.95,7.72,11.71,2.36,2.02,5.64,4.55,8.72,5.77,4.94,1.9,12.25,2.72,18.92,3.17Z"/>
      <path class="cls-5" d="M95.25,196.71c-2.19-.34-7.24-3.41-10.29-5.54-2.45-1.72-4.5-4.48-5.86-6.9-3.12-6-7.23-16-12.44-25.95-1.23-2.52-3.05-4.73-5.8-5.73-3.24-1.25-7.5-.08-10.11,2.61-.84.86-1.41,1.78-1.84,2.83-.49,1.14-1.08,2.68-1.76,4.49-.16.45-.34.92-.51,1.39-.53,1.44-1.11,2.99-1.73,4.59-3.53,8.62-6.2,16.54-12.75,20.8-8.39,6.45-11.46,6.53-20.59,7.41-.39.04-.79.08-1.2.12"/>
      <path class="cls-4" d="M96.14,201.07c-1.89.44-3.54.95-5.27,1.62-3.9,1.51-7.71,3.82-10.22,7.33-3.45,5.2-6.82,12.6-10.92,18.33-1.37,1.84-2.26,3-3.76,3.96-2.12,1.25-5.12,2.3-8.02,2.44-3.14.16-6.17-.74-7.85-3.59-4.35-6.59-12.12-25.16-23.27-27.2-8.04-1.99-11.85-2.16-16.87-2.07-.89.02-1.82.05-2.81.07-1.05.06-3.06.28-3.72.45h0c2.58,10.33,9.16,30.4,17.71,39.2,3.87,4.38,15.85,15.99,17.51,17.21,2.57,1.76,7.77,5.39,9.74,6.67,1.17.64,3.42,1.76,4.38,2.27.23.09.45.29.67.23,8.26-4.62,18.72-11.05,25.61-18.32.73-.79,1.39-1.58,1.96-2.36,6.74-9.64,14.99-19.81,18.12-30.51.63-2.26,1.34-5.27,1.88-7.27.53-2,1.42-5.41,1.92-6.92.05-.2.11-.17-.15-.51-.74-.88-1.82-1.21-3.09-1.36-1.19-.13-2.29.06-3.46.31-.02,0-.04.01-.06.02"/>
      <path class="cls-5" d="M9.95,201.9c2.3.32,5.34,1.21,7.47,2.49,4.14,2.87,7.64,9.16,9.86,13.06,1.1,2.33,7.26,16.98,10.87,24.14.43.79.81,1.44,1.5,2.19,1.84,2.07,4.9,3.11,7.2,2.89.48-.03,1.17-.13,1.46-.11.62-.01,1.17-.17,1.76-.46,3.88-2.14,6.18-6.94,7.87-11.35.45-1.15.85-2.27,1.23-3.31,1.32-3.62,2.5-6.4,4.14-9.67,2.67-5.63,6.84-11.2,7.02-11.26,2.52-2.14,6.95-5.49,11.97-7.29,4.02-1.32,10.03-1.9,13.83-2.15h.03"/>
    </g>
  </g>
</svg>